<svg width="350" height="75" viewBox="0 0 350 75" fill="none" xmlns="http://www.w3.org/2000/svg">
<path d="M109.688 52.6562C106.297 54.625 102.203 55.6094 97.4062 55.6094C92.0625 55.6094 87.8125 54.0625 84.6562 50.9688C81.5 47.8594 79.9219 43.6328 79.9219 38.2891C79.9219 32.9141 81.6406 28.5156 85.0781 25.0938C88.5156 21.6562 93.0625 19.9375 98.7188 19.9375C102.406 19.9375 105.609 20.4688 108.328 21.5312V28.0234C105.672 26.4141 102.406 25.6094 98.5312 25.6094C95.1094 25.6094 92.3203 26.7422 90.1641 29.0078C88.0234 31.2578 86.9531 34.2344 86.9531 37.9375C86.9531 41.7188 87.9219 44.6641 89.8594 46.7734C91.7969 48.8672 94.4531 49.9141 97.8281 49.9141C99.8906 49.9141 101.609 49.5781 102.984 48.9062V41.2891H95.9062V35.8516H109.688V52.6562ZM115.5 22.2578C115.5 21.2578 115.852 20.4219 116.555 19.75C117.273 19.0781 118.195 18.7422 119.32 18.7422C120.414 18.7422 121.328 19.0781 122.062 19.75C122.797 20.4062 123.164 21.2422 123.164 22.2578C123.164 23.2734 122.797 24.1172 122.062 24.7891C121.344 25.4609 120.43 25.7969 119.32 25.7969C118.211 25.7969 117.297 25.4531 116.578 24.7656C115.859 24.0781 115.5 23.2422 115.5 22.2578ZM116.016 55V30.3672H122.531V55H116.016ZM143.133 54.7422C142.023 55.3047 140.477 55.5859 138.492 55.5859C133.445 55.5859 130.922 52.9141 130.922 47.5703V35.3359H126.844V30.3672H130.922V24.8594L137.438 22.9609V30.3672H143.133V35.3359H137.438V46.4219C137.438 49.1406 138.508 50.5 140.648 50.5C141.539 50.5 142.367 50.25 143.133 49.75V54.7422ZM177.68 55H170.391L167.602 46.75H154.641L151.922 55H144.633L157.406 20.5H165.117L177.68 55ZM165.938 41.4531L161.719 28.9609C161.547 28.4609 161.367 27.5078 161.18 26.1016H161.016C160.891 27.1484 160.695 28.0859 160.43 28.9141L156.188 41.4531H165.938ZM204.352 55H197.836V41.1953C197.836 36.9766 196.312 34.8672 193.266 34.8672C191.734 34.8672 190.484 35.4453 189.516 36.6016C188.562 37.7422 188.086 39.1953 188.086 40.9609V55H181.547V30.3672H188.086V34.3281H188.156C189.969 31.2969 192.633 29.7812 196.148 29.7812C201.617 29.7812 204.352 33.1641 204.352 39.9297V55ZM211.336 31.9375C212.445 31.2969 213.883 30.7812 215.648 30.3906C217.414 29.9844 219 29.7812 220.406 29.7812C227.062 29.7812 230.391 33.1562 230.391 39.9062V55H224.156V51.3672H224.039C222.383 54.1953 219.922 55.6094 216.656 55.6094C214.281 55.6094 212.398 54.9453 211.008 53.6172C209.617 52.2734 208.922 50.4766 208.922 48.2266C208.922 43.5234 211.719 40.7969 217.312 40.0469L224.18 39.1094C224.18 35.9688 222.648 34.3984 219.586 34.3984C216.664 34.3984 213.914 35.3125 211.336 37.1406V31.9375ZM219.281 43.75C216.469 44.1094 215.062 45.3672 215.062 47.5234C215.062 48.4922 215.398 49.2812 216.07 49.8906C216.742 50.5 217.648 50.8047 218.789 50.8047C220.352 50.8047 221.641 50.2578 222.656 49.1641C223.672 48.0547 224.18 46.6641 224.18 44.9922V43.1172L219.281 43.75ZM236.719 55V18.5547H243.234V55H236.719ZM272.32 30.3672L261.938 57.5547C259.641 63.5703 256.234 66.5781 251.719 66.5781C250.156 66.5781 248.836 66.3984 247.758 66.0391V60.7188C248.695 61.2188 249.711 61.4688 250.805 61.4688C252.758 61.4688 254.156 60.4688 255 58.4688L256.5 54.9531L246.609 30.3672H253.852L259.031 46.5156C259.188 47.0312 259.398 47.9922 259.664 49.3984H259.758C259.883 48.5859 260.117 47.6406 260.461 46.5625L265.805 30.3672H272.32ZM289.57 54.7422C288.461 55.3047 286.914 55.5859 284.93 55.5859C279.883 55.5859 277.359 52.9141 277.359 47.5703V35.3359H273.281V30.3672H277.359V24.8594L283.875 22.9609V30.3672H289.57V35.3359H283.875V46.4219C283.875 49.1406 284.945 50.5 287.086 50.5C287.977 50.5 288.805 50.25 289.57 49.75V54.7422ZM293.578 22.2578C293.578 21.2578 293.93 20.4219 294.633 19.75C295.352 19.0781 296.273 18.7422 297.398 18.7422C298.492 18.7422 299.406 19.0781 300.141 19.75C300.875 20.4062 301.242 21.2422 301.242 22.2578C301.242 23.2734 300.875 24.1172 300.141 24.7891C299.422 25.4609 298.508 25.7969 297.398 25.7969C296.289 25.7969 295.375 25.4531 294.656 24.7656C293.938 24.0781 293.578 23.2422 293.578 22.2578ZM294.094 55V30.3672H300.609V55H294.094ZM325.5 54.0391C323.734 55.0859 321.32 55.6094 318.258 55.6094C314.57 55.6094 311.578 54.4766 309.281 52.2109C307 49.9297 305.859 46.9531 305.859 43.2812C305.859 39.0938 307.086 35.7969 309.539 33.3906C311.992 30.9844 315.266 29.7812 319.359 29.7812C322.031 29.7812 324.078 30.1719 325.5 30.9531V36.6953C323.844 35.4766 322.016 34.8672 320.016 34.8672C317.734 34.8672 315.906 35.5859 314.531 37.0234C313.156 38.4453 312.469 40.375 312.469 42.8125C312.469 45.2188 313.117 47.1016 314.414 48.4609C315.711 49.8203 317.492 50.5 319.758 50.5C321.742 50.5 323.656 49.875 325.5 48.625V54.0391ZM329.93 48.6719C332.367 50.2031 334.773 50.9688 337.148 50.9688C340.211 50.9688 341.742 50.1016 341.742 48.3672C341.742 47.1641 340.531 46.1484 338.109 45.3203C334.578 44.1328 332.336 42.9688 331.383 41.8281C330.43 40.6719 329.953 39.1953 329.953 37.3984C329.953 35.0234 330.922 33.1641 332.859 31.8203C334.797 30.4609 337.289 29.7812 340.336 29.7812C342.461 29.7812 344.586 30.1172 346.711 30.7891V36.1094C344.789 34.9688 342.688 34.3984 340.406 34.3984C339.203 34.3984 338.234 34.625 337.5 35.0781C336.766 35.5312 336.398 36.1328 336.398 36.8828C336.398 38.1172 337.422 39.0938 339.469 39.8125C341.797 40.6562 343.508 41.3672 344.602 41.9453C345.695 42.5078 346.547 43.2812 347.156 44.2656C347.766 45.25 348.07 46.4062 348.07 47.7344C348.07 50.2344 347.07 52.1719 345.07 53.5469C343.086 54.9219 340.461 55.6094 337.195 55.6094C334.445 55.6094 332.023 55.1719 329.93 54.2969V48.6719Z" fill="black"/>
<path d="M66.7969 59.0625L57.0312 49.2969C55.7031 47.9688 53.9063 47.5 52.1875 47.8125L48.75 44.375C51.7969 40.4687 53.5938 35.4688 53.5938 30.1563C53.5938 17.2656 43.0469 6.71875 30.1563 6.71875C17.2656 6.71875 6.71875 17.2656 6.71875 30.1563C6.71875 43.0469 17.2656 53.5938 30.1563 53.5938C35.4688 53.5938 40.3906 51.7969 44.375 48.75L47.8125 52.1875C47.5 53.9062 47.9688 55.7031 49.2969 57.0312L59.0625 66.7969C60.1563 67.8906 61.5625 68.4375 62.9688 68.4375C64.375 68.4375 65.7813 67.8906 66.875 66.7969C68.9063 64.6094 68.9063 61.1719 66.7969 59.0625ZM30.0781 48.8281C19.7656 48.8281 11.3281 40.3906 11.3281 30.0781C11.3281 19.7656 19.7656 11.3281 30.0781 11.3281C40.3906 11.3281 48.8281 19.7656 48.8281 30.0781C48.8281 40.3906 40.3906 48.8281 30.0781 48.8281Z" fill="black"/>
<g clip-path="url(#clip0_1_21)">
<mask id="mask0_1_21" style="mask-type:luminance" maskUnits="userSpaceOnUse" x="14" y="14" width="33" height="33">
<path d="M14.8438 14.8821H46.0554V46.0938H14.8438V14.8821Z" fill="white"/>
</mask>
<g mask="url(#mask0_1_21)">
<path d="M45.4674 29.0982L31.8397 15.4715C31.6531 15.2847 31.4316 15.1365 31.1877 15.0354C30.9439 14.9343 30.6825 14.8822 30.4185 14.8822C30.1545 14.8822 29.8931 14.9343 29.6492 15.0354C29.4054 15.1365 29.1838 15.2847 28.9973 15.4715L26.1671 18.3016L29.7561 21.8906C30.1781 21.7473 30.6317 21.725 31.0657 21.826C31.4997 21.9271 31.8968 22.1476 32.212 22.4626C32.5288 22.78 32.7501 23.18 32.8506 23.617C32.9511 24.0541 32.9267 24.5106 32.7802 24.9344L36.2391 28.3937C36.6629 28.2464 37.1196 28.2216 37.5569 28.322C37.9942 28.4225 38.3943 28.6441 38.7113 28.9616C38.9334 29.1837 39.1096 29.4473 39.2298 29.7375C39.35 30.0276 39.4118 30.3386 39.4118 30.6527C39.4118 30.9667 39.35 31.2777 39.2298 31.5679C39.1096 31.8581 38.9334 32.1217 38.7113 32.3437C38.2625 32.7923 37.654 33.0443 37.0195 33.0443C36.385 33.0443 35.7765 32.7923 35.3278 32.3437C34.9938 32.0099 34.7661 31.5847 34.6735 31.1216C34.5809 30.6586 34.6275 30.1784 34.8074 29.7418L31.5805 26.516V35.0068C31.9211 35.175 32.2167 35.422 32.4429 35.7273C32.669 36.0325 32.8192 36.3872 32.8809 36.7621C32.9427 37.1369 32.9142 37.521 32.798 37.8827C32.6817 38.2443 32.4809 38.5731 32.2123 38.8417C31.9902 39.0638 31.7266 39.24 31.4364 39.3602C31.1463 39.4804 30.8353 39.5423 30.5212 39.5423C30.2072 39.5423 29.8962 39.4804 29.606 39.3602C29.3159 39.24 29.0522 39.0638 28.8302 38.8417C28.608 38.6196 28.4318 38.356 28.3116 38.0658C28.1913 37.7756 28.1294 37.4646 28.1294 37.1505C28.1294 36.8364 28.1913 36.5253 28.3116 36.2351C28.4318 35.945 28.608 35.6813 28.8302 35.4592C29.0542 35.2347 29.3207 35.057 29.6141 34.9365V26.3675C29.3207 26.2477 29.0541 26.0704 28.8302 25.8461C28.4948 25.5103 28.2667 25.0824 28.1751 24.6167C28.0834 24.151 28.1322 23.6685 28.3152 23.2306L24.7765 19.6919L15.4327 29.0343C15.246 29.221 15.0979 29.4426 14.9968 29.6866C14.8957 29.9305 14.8437 30.192 14.8437 30.456C14.8437 30.7201 14.8957 30.9815 14.9968 31.2255C15.0979 31.4694 15.246 31.691 15.4327 31.8777L29.0608 45.5061C29.4379 45.8828 29.949 46.0944 30.482 46.0944C31.015 46.0944 31.5261 45.8828 31.9032 45.5061L45.4674 31.9416C45.844 31.5643 46.0555 31.053 46.0555 30.5199C46.0555 29.9868 45.844 29.4755 45.4674 29.0982Z" fill="#100F0D"/>
</g>
</g>
<defs>
<clipPath id="clip0_1_21">
<rect width="31.25" height="31.25" fill="white" transform="translate(14.8438 14.8438)"/>
</clipPath>
</defs>
</svg>
